<?xml version="1.0" encoding="utf-8" standalone="no"?>
<!DOCTYPE svg PUBLIC "-//W3C//DTD SVG 1.1//EN"
  "http://www.w3.org/Graphics/SVG/1.1/DTD/svg11.dtd">
<!-- Created with matplotlib (https://matplotlib.org/) -->
<svg height="345.6pt" version="1.1" viewBox="0 0 460.8 345.6" width="460.8pt" xmlns="http://www.w3.org/2000/svg" xmlns:xlink="http://www.w3.org/1999/xlink">
 <defs>
  <style type="text/css">
*{stroke-linecap:butt;stroke-linejoin:round;}
  </style>
 </defs>
 <g id="figure_1">
  <g id="patch_1">
   <path d="M 0 345.6 
L 460.8 345.6 
L 460.8 0 
L 0 0 
z
" style="fill:#ffffff;"/>
  </g>
  <g id="axes_1">
   <g id="patch_2">
    <path d="M 57.6 208.616727 
L 414.72 208.616727 
L 414.72 140.439273 
L 57.6 140.439273 
z
" style="fill:#ffffff;"/>
   </g>
   <g id="patch_3">
    <path clip-path="url(#pfd9bfff1dd)" d="M 169.605818 185.890909 
L 172.852364 185.890909 
L 172.852364 182.644364 
L 169.605818 182.644364 
z
"/>
   </g>
   <g id="patch_4">
    <path clip-path="url(#pfd9bfff1dd)" d="M 169.605818 172.904727 
L 172.852364 172.904727 
L 172.852364 169.658182 
L 169.605818 169.658182 
z
"/>
   </g>
   <g id="patch_5">
    <path clip-path="url(#pfd9bfff1dd)" d="M 169.605818 169.658182 
L 172.852364 169.658182 
L 172.852364 166.411636 
L 169.605818 166.411636 
z
"/>
   </g>
   <g id="patch_6">
    <path clip-path="url(#pfd9bfff1dd)" d="M 169.605818 166.411636 
L 172.852364 166.411636 
L 172.852364 163.165091 
L 169.605818 163.165091 
z
"/>
   </g>
   <g id="patch_7">
    <path clip-path="url(#pfd9bfff1dd)" d="M 169.605818 163.165091 
L 172.852364 163.165091 
L 172.852364 159.918545 
L 169.605818 159.918545 
z
"/>
   </g>
   <g id="patch_8">
    <path clip-path="url(#pfd9bfff1dd)" d="M 169.605818 159.918545 
L 172.852364 159.918545 
L 172.852364 156.672 
L 169.605818 156.672 
z
"/>
   </g>
   <g id="patch_9">
    <path clip-path="url(#pfd9bfff1dd)" d="M 172.852364 185.890909 
L 176.098909 185.890909 
L 176.098909 182.644364 
L 172.852364 182.644364 
z
"/>
   </g>
   <g id="patch_10">
    <path clip-path="url(#pfd9bfff1dd)" d="M 172.852364 172.904727 
L 176.098909 172.904727 
L 176.098909 169.658182 
L 172.852364 169.658182 
z
"/>
   </g>
   <g id="patch_11">
    <path clip-path="url(#pfd9bfff1dd)" d="M 172.852364 159.918545 
L 176.098909 159.918545 
L 176.098909 156.672 
L 172.852364 156.672 
z
"/>
   </g>
   <g id="patch_12">
    <path clip-path="url(#pfd9bfff1dd)" d="M 176.098909 185.890909 
L 179.345455 185.890909 
L 179.345455 182.644364 
L 176.098909 182.644364 
z
"/>
   </g>
   <g id="patch_13">
    <path clip-path="url(#pfd9bfff1dd)" d="M 176.098909 172.904727 
L 179.345455 172.904727 
L 179.345455 169.658182 
L 176.098909 169.658182 
z
"/>
   </g>
   <g id="patch_14">
    <path clip-path="url(#pfd9bfff1dd)" d="M 176.098909 159.918545 
L 179.345455 159.918545 
L 179.345455 156.672 
L 176.098909 156.672 
z
"/>
   </g>
   <g id="patch_15">
    <path clip-path="url(#pfd9bfff1dd)" d="M 179.345455 185.890909 
L 182.592 185.890909 
L 182.592 182.644364 
L 179.345455 182.644364 
z
"/>
   </g>
   <g id="patch_16">
    <path clip-path="url(#pfd9bfff1dd)" d="M 179.345455 172.904727 
L 182.592 172.904727 
L 182.592 169.658182 
L 179.345455 169.658182 
z
"/>
   </g>
   <g id="patch_17">
    <path clip-path="url(#pfd9bfff1dd)" d="M 179.345455 159.918545 
L 182.592 159.918545 
L 182.592 156.672 
L 179.345455 156.672 
z
"/>
   </g>
   <g id="patch_18">
    <path clip-path="url(#pfd9bfff1dd)" d="M 182.592 185.890909 
L 185.838545 185.890909 
L 185.838545 182.644364 
L 182.592 182.644364 
z
"/>
   </g>
   <g id="patch_19">
    <path clip-path="url(#pfd9bfff1dd)" d="M 182.592 172.904727 
L 185.838545 172.904727 
L 185.838545 169.658182 
L 182.592 169.658182 
z
"/>
   </g>
   <g id="patch_20">
    <path clip-path="url(#pfd9bfff1dd)" d="M 182.592 159.918545 
L 185.838545 159.918545 
L 185.838545 156.672 
L 182.592 156.672 
z
"/>
   </g>
   <g id="patch_21">
    <path clip-path="url(#pfd9bfff1dd)" d="M 185.838545 185.890909 
L 189.085091 185.890909 
L 189.085091 182.644364 
L 185.838545 182.644364 
z
"/>
   </g>
   <g id="patch_22">
    <path clip-path="url(#pfd9bfff1dd)" d="M 185.838545 172.904727 
L 189.085091 172.904727 
L 189.085091 169.658182 
L 185.838545 169.658182 
z
"/>
   </g>
   <g id="patch_23">
    <path clip-path="url(#pfd9bfff1dd)" d="M 185.838545 159.918545 
L 189.085091 159.918545 
L 189.085091 156.672 
L 185.838545 156.672 
z
"/>
   </g>
   <g id="patch_24">
    <path clip-path="url(#pfd9bfff1dd)" d="M 189.085091 185.890909 
L 192.331636 185.890909 
L 192.331636 182.644364 
L 189.085091 182.644364 
z
"/>
   </g>
   <g id="patch_25">
    <path clip-path="url(#pfd9bfff1dd)" d="M 189.085091 172.904727 
L 192.331636 172.904727 
L 192.331636 169.658182 
L 189.085091 169.658182 
z
"/>
   </g>
   <g id="patch_26">
    <path clip-path="url(#pfd9bfff1dd)" d="M 189.085091 159.918545 
L 192.331636 159.918545 
L 192.331636 156.672 
L 189.085091 156.672 
z
"/>
   </g>
   <g id="patch_27">
    <path clip-path="url(#pfd9bfff1dd)" d="M 192.331636 185.890909 
L 195.578182 185.890909 
L 195.578182 182.644364 
L 192.331636 182.644364 
z
"/>
   </g>
   <g id="patch_28">
    <path clip-path="url(#pfd9bfff1dd)" d="M 192.331636 172.904727 
L 195.578182 172.904727 
L 195.578182 169.658182 
L 192.331636 169.658182 
z
"/>
   </g>
   <g id="patch_29">
    <path clip-path="url(#pfd9bfff1dd)" d="M 192.331636 159.918545 
L 195.578182 159.918545 
L 195.578182 156.672 
L 192.331636 156.672 
z
"/>
   </g>
   <g id="patch_30">
    <path clip-path="url(#pfd9bfff1dd)" d="M 195.578182 185.890909 
L 198.824727 185.890909 
L 198.824727 182.644364 
L 195.578182 182.644364 
z
"/>
   </g>
   <g id="patch_31">
    <path clip-path="url(#pfd9bfff1dd)" d="M 195.578182 182.644364 
L 198.824727 182.644364 
L 198.824727 179.397818 
L 195.578182 179.397818 
z
"/>
   </g>
   <g id="patch_32">
    <path clip-path="url(#pfd9bfff1dd)" d="M 195.578182 179.397818 
L 198.824727 179.397818 
L 198.824727 176.151273 
L 195.578182 176.151273 
z
"/>
   </g>
   <g id="patch_33">
    <path clip-path="url(#pfd9bfff1dd)" d="M 195.578182 176.151273 
L 198.824727 176.151273 
L 198.824727 172.904727 
L 195.578182 172.904727 
z
"/>
   </g>
   <g id="patch_34">
    <path clip-path="url(#pfd9bfff1dd)" d="M 195.578182 172.904727 
L 198.824727 172.904727 
L 198.824727 169.658182 
L 195.578182 169.658182 
z
"/>
   </g>
   <g id="patch_35">
    <path clip-path="url(#pfd9bfff1dd)" d="M 195.578182 159.918545 
L 198.824727 159.918545 
L 198.824727 156.672 
L 195.578182 156.672 
z
"/>
   </g>
   <g id="matplotlib.axis_1">
    <g id="xtick_1">
     <g id="line2d_1">
      <defs>
       <path d="M 0 0 
L 0 3.5 
" id="mc52253a826" style="stroke:#000000;stroke-width:0.8;"/>
      </defs>
      <g>
       <use style="stroke:#000000;stroke-width:0.8;" x="64.093091" xlink:href="#mc52253a826" y="208.616727"/>
      </g>
     </g>
     <g id="text_1">
      <!-- 0 -->
      <defs>
       <path d="M 31.78125 66.40625 
Q 24.171875 66.40625 20.328125 58.90625 
Q 16.5 51.421875 16.5 36.375 
Q 16.5 21.390625 20.328125 13.890625 
Q 24.171875 6.390625 31.78125 6.390625 
Q 39.453125 6.390625 43.28125 13.890625 
Q 47.125 21.390625 47.125 36.375 
Q 47.125 51.421875 43.28125 58.90625 
Q 39.453125 66.40625 31.78125 66.40625 
z
M 31.78125 74.21875 
Q 44.046875 74.21875 50.515625 64.515625 
Q 56.984375 54.828125 56.984375 36.375 
Q 56.984375 17.96875 50.515625 8.265625 
Q 44.046875 -1.421875 31.78125 -1.421875 
Q 19.53125 -1.421875 13.0625 8.265625 
Q 6.59375 17.96875 6.59375 36.375 
Q 6.59375 54.828125 13.0625 64.515625 
Q 19.53125 74.21875 31.78125 74.21875 
z
" id="DejaVuSans-48"/>
      </defs>
      <g transform="translate(60.911841 223.215165)scale(0.1 -0.1)">
       <use xlink:href="#DejaVuSans-48"/>
      </g>
     </g>
    </g>
    <g id="xtick_2">
     <g id="line2d_2">
      <g>
       <use style="stroke:#000000;stroke-width:0.8;" x="388.747636" xlink:href="#mc52253a826" y="208.616727"/>
      </g>
     </g>
     <g id="text_2">
      <!-- 100 -->
      <defs>
       <path d="M 12.40625 8.296875 
L 28.515625 8.296875 
L 28.515625 63.921875 
L 10.984375 60.40625 
L 10.984375 69.390625 
L 28.421875 72.90625 
L 38.28125 72.90625 
L 38.28125 8.296875 
L 54.390625 8.296875 
L 54.390625 0 
L 12.40625 0 
z
" id="DejaVuSans-49"/>
      </defs>
      <g transform="translate(379.203886 223.215165)scale(0.1 -0.1)">
       <use xlink:href="#DejaVuSans-49"/>
       <use x="63.623047" xlink:href="#DejaVuSans-48"/>
       <use x="127.246094" xlink:href="#DejaVuSans-48"/>
      </g>
     </g>
    </g>
   </g>
   <g id="matplotlib.axis_2">
    <g id="ytick_1">
     <g id="line2d_3">
      <defs>
       <path d="M 0 0 
L -3.5 0 
" id="m99b48f13fe" style="stroke:#000000;stroke-width:0.8;"/>
      </defs>
      <g>
       <use style="stroke:#000000;stroke-width:0.8;" x="57.6" xlink:href="#m99b48f13fe" y="202.123636"/>
      </g>
     </g>
     <g id="text_3">
      <!-- N -->
      <defs>
       <path d="M 9.8125 72.90625 
L 23.09375 72.90625 
L 55.421875 11.921875 
L 55.421875 72.90625 
L 64.984375 72.90625 
L 64.984375 0 
L 51.703125 0 
L 19.390625 60.984375 
L 19.390625 0 
L 9.8125 0 
z
" id="DejaVuSans-78"/>
      </defs>
      <g transform="translate(43.11875 205.922855)scale(0.1 -0.1)">
       <use xlink:href="#DejaVuSans-78"/>
      </g>
     </g>
    </g>
    <g id="ytick_2">
     <g id="line2d_4">
      <g>
       <use style="stroke:#000000;stroke-width:0.8;" x="57.6" xlink:href="#m99b48f13fe" y="189.137455"/>
      </g>
     </g>
     <g id="text_4">
      <!-- N + 4 -->
      <defs>
       <path id="DejaVuSans-32"/>
       <path d="M 46 62.703125 
L 46 35.5 
L 73.1875 35.5 
L 73.1875 27.203125 
L 46 27.203125 
L 46 0 
L 37.796875 0 
L 37.796875 27.203125 
L 10.59375 27.203125 
L 10.59375 35.5 
L 37.796875 35.5 
L 37.796875 62.703125 
z
" id="DejaVuSans-43"/>
       <path d="M 37.796875 64.3125 
L 12.890625 25.390625 
L 37.796875 25.390625 
z
M 35.203125 72.90625 
L 47.609375 72.90625 
L 47.609375 25.390625 
L 58.015625 25.390625 
L 58.015625 17.1875 
L 47.609375 17.1875 
L 47.609375 0 
L 37.796875 0 
L 37.796875 17.1875 
L 4.890625 17.1875 
L 4.890625 26.703125 
z
" id="DejaVuSans-52"/>
      </defs>
      <g transform="translate(22.020312 192.936673)scale(0.1 -0.1)">
       <use xlink:href="#DejaVuSans-78"/>
       <use x="74.804688" xlink:href="#DejaVuSans-32"/>
       <use x="106.591797" xlink:href="#DejaVuSans-43"/>
       <use x="190.380859" xlink:href="#DejaVuSans-32"/>
       <use x="222.167969" xlink:href="#DejaVuSans-52"/>
      </g>
     </g>
    </g>
    <g id="ytick_3">
     <g id="line2d_5">
      <g>
       <use style="stroke:#000000;stroke-width:0.8;" x="57.6" xlink:href="#m99b48f13fe" y="176.151273"/>
      </g>
     </g>
     <g id="text_5">
      <!-- N + 8 -->
      <defs>
       <path d="M 31.78125 34.625 
Q 24.75 34.625 20.71875 30.859375 
Q 16.703125 27.09375 16.703125 20.515625 
Q 16.703125 13.921875 20.71875 10.15625 
Q 24.75 6.390625 31.78125 6.390625 
Q 38.8125 6.390625 42.859375 10.171875 
Q 46.921875 13.96875 46.921875 20.515625 
Q 46.921875 27.09375 42.890625 30.859375 
Q 38.875 34.625 31.78125 34.625 
z
M 21.921875 38.8125 
Q 15.578125 40.375 12.03125 44.71875 
Q 8.5 49.078125 8.5 55.328125 
Q 8.5 64.0625 14.71875 69.140625 
Q 20.953125 74.21875 31.78125 74.21875 
Q 42.671875 74.21875 48.875 69.140625 
Q 55.078125 64.0625 55.078125 55.328125 
Q 55.078125 49.078125 51.53125 44.71875 
Q 48 40.375 41.703125 38.8125 
Q 48.828125 37.15625 52.796875 32.3125 
Q 56.78125 27.484375 56.78125 20.515625 
Q 56.78125 9.90625 50.3125 4.234375 
Q 43.84375 -1.421875 31.78125 -1.421875 
Q 19.734375 -1.421875 13.25 4.234375 
Q 6.78125 9.90625 6.78125 20.515625 
Q 6.78125 27.484375 10.78125 32.3125 
Q 14.796875 37.15625 21.921875 38.8125 
z
M 18.3125 54.390625 
Q 18.3125 48.734375 21.84375 45.5625 
Q 25.390625 42.390625 31.78125 42.390625 
Q 38.140625 42.390625 41.71875 45.5625 
Q 45.3125 48.734375 45.3125 54.390625 
Q 45.3125 60.0625 41.71875 63.234375 
Q 38.140625 66.40625 31.78125 66.40625 
Q 25.390625 66.40625 21.84375 63.234375 
Q 18.3125 60.0625 18.3125 54.390625 
z
" id="DejaVuSans-56"/>
      </defs>
      <g transform="translate(22.020312 179.950491)scale(0.1 -0.1)">
       <use xlink:href="#DejaVuSans-78"/>
       <use x="74.804688" xlink:href="#DejaVuSans-32"/>
       <use x="106.591797" xlink:href="#DejaVuSans-43"/>
       <use x="190.380859" xlink:href="#DejaVuSans-32"/>
       <use x="222.167969" xlink:href="#DejaVuSans-56"/>
      </g>
     </g>
    </g>
    <g id="ytick_4">
     <g id="line2d_6">
      <g>
       <use style="stroke:#000000;stroke-width:0.8;" x="57.6" xlink:href="#m99b48f13fe" y="163.165091"/>
      </g>
     </g>
     <g id="text_6">
      <!-- N + 12 -->
      <defs>
       <path d="M 19.1875 8.296875 
L 53.609375 8.296875 
L 53.609375 0 
L 7.328125 0 
L 7.328125 8.296875 
Q 12.9375 14.109375 22.625 23.890625 
Q 32.328125 33.6875 34.8125 36.53125 
Q 39.546875 41.84375 41.421875 45.53125 
Q 43.3125 49.21875 43.3125 52.78125 
Q 43.3125 58.59375 39.234375 62.25 
Q 35.15625 65.921875 28.609375 65.921875 
Q 23.96875 65.921875 18.8125 64.3125 
Q 13.671875 62.703125 7.8125 59.421875 
L 7.8125 69.390625 
Q 13.765625 71.78125 18.9375 73 
Q 24.125 74.21875 28.421875 74.21875 
Q 39.75 74.21875 46.484375 68.546875 
Q 53.21875 62.890625 53.21875 53.421875 
Q 53.21875 48.921875 51.53125 44.890625 
Q 49.859375 40.875 45.40625 35.40625 
Q 44.1875 33.984375 37.640625 27.21875 
Q 31.109375 20.453125 19.1875 8.296875 
z
" id="DejaVuSans-50"/>
      </defs>
      <g transform="translate(15.657812 166.96431)scale(0.1 -0.1)">
       <use xlink:href="#DejaVuSans-78"/>
       <use x="74.804688" xlink:href="#DejaVuSans-32"/>
       <use x="106.591797" xlink:href="#DejaVuSans-43"/>
       <use x="190.380859" xlink:href="#DejaVuSans-32"/>
       <use x="222.167969" xlink:href="#DejaVuSans-49"/>
       <use x="285.791016" xlink:href="#DejaVuSans-50"/>
      </g>
     </g>
    </g>
    <g id="ytick_5">
     <g id="line2d_7">
      <g>
       <use style="stroke:#000000;stroke-width:0.8;" x="57.6" xlink:href="#m99b48f13fe" y="150.178909"/>
      </g>
     </g>
     <g id="text_7">
      <!-- N + 16 -->
      <defs>
       <path d="M 33.015625 40.375 
Q 26.375 40.375 22.484375 35.828125 
Q 18.609375 31.296875 18.609375 23.390625 
Q 18.609375 15.53125 22.484375 10.953125 
Q 26.375 6.390625 33.015625 6.390625 
Q 39.65625 6.390625 43.53125 10.953125 
Q 47.40625 15.53125 47.40625 23.390625 
Q 47.40625 31.296875 43.53125 35.828125 
Q 39.65625 40.375 33.015625 40.375 
z
M 52.59375 71.296875 
L 52.59375 62.3125 
Q 48.875 64.0625 45.09375 64.984375 
Q 41.3125 65.921875 37.59375 65.921875 
Q 27.828125 65.921875 22.671875 59.328125 
Q 17.53125 52.734375 16.796875 39.40625 
Q 19.671875 43.65625 24.015625 45.921875 
Q 28.375 48.1875 33.59375 48.1875 
Q 44.578125 48.1875 50.953125 41.515625 
Q 57.328125 34.859375 57.328125 23.390625 
Q 57.328125 12.15625 50.6875 5.359375 
Q 44.046875 -1.421875 33.015625 -1.421875 
Q 20.359375 -1.421875 13.671875 8.265625 
Q 6.984375 17.96875 6.984375 36.375 
Q 6.984375 53.65625 15.1875 63.9375 
Q 23.390625 74.21875 37.203125 74.21875 
Q 40.921875 74.21875 44.703125 73.484375 
Q 48.484375 72.75 52.59375 71.296875 
z
" id="DejaVuSans-54"/>
      </defs>
      <g transform="translate(15.657812 153.978128)scale(0.1 -0.1)">
       <use xlink:href="#DejaVuSans-78"/>
       <use x="74.804688" xlink:href="#DejaVuSans-32"/>
       <use x="106.591797" xlink:href="#DejaVuSans-43"/>
       <use x="190.380859" xlink:href="#DejaVuSans-32"/>
       <use x="222.167969" xlink:href="#DejaVuSans-49"/>
       <use x="285.791016" xlink:href="#DejaVuSans-54"/>
      </g>
     </g>
    </g>
   </g>
   <g id="patch_36">
    <path d="M 57.6 208.616727 
L 57.6 140.439273 
" style="fill:none;stroke:#000000;stroke-linecap:square;stroke-linejoin:miter;stroke-width:0.8;"/>
   </g>
   <g id="patch_37">
    <path d="M 414.72 208.616727 
L 414.72 140.439273 
" style="fill:none;stroke:#000000;stroke-linecap:square;stroke-linejoin:miter;stroke-width:0.8;"/>
   </g>
   <g id="patch_38">
    <path d="M 57.6 208.616727 
L 414.72 208.616727 
" style="fill:none;stroke:#000000;stroke-linecap:square;stroke-linejoin:miter;stroke-width:0.8;"/>
   </g>
   <g id="patch_39">
    <path d="M 57.6 140.439273 
L 414.72 140.439273 
" style="fill:none;stroke:#000000;stroke-linecap:square;stroke-linejoin:miter;stroke-width:0.8;"/>
   </g>
  </g>
 </g>
 <defs>
  <clipPath id="pfd9bfff1dd">
   <rect height="68.177455" width="357.12" x="57.6" y="140.439273"/>
  </clipPath>
 </defs>
</svg>
